<?xml version="1.0" standalone="no"?>
<!DOCTYPE svg PUBLIC "-//W3C//DTD SVG 20010904//EN"
 "http://www.w3.org/TR/2001/REC-SVG-20010904/DTD/svg10.dtd">
<svg version="1.0" xmlns="http://www.w3.org/2000/svg"
 width="500.000000pt" height="500.000000pt" viewBox="0 0 500.000000 500.000000"
 preserveAspectRatio="xMidYMid meet">

<g transform="translate(0.000000,500.000000) scale(0.100000,-0.100000)"
fill="#000000" stroke="none">
<path d="M3346 4618 c-8 -29 -42 -183 -50 -225 l-5 -33 87 0 c107 0 265 -23
354 -51 281 -89 464 -320 507 -639 7 -47 15 -109 19 -138 l7 -53 65 52 c36 28
83 68 106 88 22 20 68 59 102 86 38 31 62 58 62 70 0 39 -49 202 -84 279 -172
376 -535 586 -1014 586 -147 0 -150 0 -156 -22z"/>
<path d="M3040 4604 c-69 -13 -165 -34 -215 -47 -88 -23 -90 -24 -89 -53 7
-131 18 -264 22 -264 3 0 48 13 101 29 53 16 121 34 151 41 129 28 140 32 144
54 2 11 12 66 21 121 8 56 18 111 22 123 7 27 5 27 -157 -4z"/>
<path d="M2560 4473 c-106 -38 -380 -169 -380 -182 0 -10 81 -263 86 -270 2
-2 27 10 56 26 29 17 107 54 173 83 66 30 123 56 127 60 12 9 -24 290 -37 289
-5 0 -17 -3 -25 -6z"/>
<path d="M1955 4159 c-38 -28 -84 -60 -101 -72 -166 -116 -356 -286 -496 -445
-221 -250 -360 -458 -514 -769 -64 -130 -164 -370 -164 -395 0 -7 151 -58 174
-58 7 0 23 26 36 58 65 161 227 459 326 598 213 302 504 584 836 811 50 34 92
64 94 66 3 2 -6 28 -19 58 -13 30 -37 87 -52 127 -16 39 -33 72 -39 71 -6 0
-42 -23 -81 -50z"/>
<path d="M3010 4010 c-47 -5 -104 -13 -128 -19 -36 -10 -42 -16 -42 -39 0 -15
-5 -72 -10 -126 -5 -55 -8 -101 -7 -103 2 -1 35 4 73 12 38 8 105 18 148 22
l79 8 38 115 c22 63 39 121 39 128 0 14 -51 14 -190 2z"/>
<path d="M3313 3993 c-3 -10 -26 -67 -50 -127 -24 -61 -43 -113 -43 -117 0 -3
25 -11 56 -17 122 -25 256 -124 300 -222 8 -19 19 -44 24 -55 14 -31 37 -143
44 -215 22 -223 -84 -567 -258 -832 l-16 -25 89 -52 c49 -28 95 -51 102 -51
15 0 109 169 171 307 49 108 114 301 138 411 26 114 36 314 21 417 -37 266
-181 454 -421 552 -103 42 -148 49 -157 26z"/>
<path d="M2600 3906 c-144 -55 -226 -92 -235 -106 -4 -6 -2 -23 3 -38 6 -15
20 -64 32 -109 13 -46 24 -83 25 -83 1 0 40 17 86 39 46 21 114 48 150 61 l66
22 7 66 c10 112 8 192 -6 192 -7 -1 -65 -20 -128 -44z"/>
<path d="M2225 3719 c-182 -100 -488 -369 -658 -581 -157 -195 -318 -469 -376
-640 -18 -53 -18 -57 -3 -62 32 -10 147 -27 157 -24 5 2 24 36 42 77 89 205
268 457 461 650 167 167 322 288 470 367 5 2 -61 224 -67 224 -3 0 -15 -6 -26
-11z"/>
<path d="M4524 3517 c-126 -104 -326 -277 -413 -355 -41 -37 -91 -80 -112 -96
-21 -17 -37 -32 -34 -34 2 -2 46 -13 96 -23 51 -11 95 -21 97 -24 9 -9 -57
-163 -148 -345 -66 -133 -111 -212 -221 -390 -36 -58 -39 -66 -24 -75 9 -5 75
-47 147 -92 71 -46 134 -83 139 -83 5 0 41 48 80 108 109 166 274 504 339 694
l23 66 51 -20 c42 -16 89 -37 150 -66 5 -3 6 22 3 59 -4 35 -11 109 -17 164
-28 287 -60 578 -63 582 -3 2 -45 -29 -93 -70z"/>
<path d="M2823 3453 c-17 -2 -36 -10 -41 -16 -5 -7 -13 -51 -17 -98 l-7 -86
80 -5 c134 -10 209 -58 260 -167 21 -46 24 -67 24 -155 0 -85 -5 -115 -30
-192 -56 -169 -150 -334 -264 -465 -32 -38 -47 -62 -42 -71 4 -7 28 -40 53
-72 l45 -60 53 59 c188 207 318 438 377 670 34 133 36 305 5 397 -68 202 -241
293 -496 261z"/>
<path d="M2640 3406 c-88 -33 -146 -57 -159 -65 -11 -7 -11 -21 -1 -82 16 -99
18 -101 60 -81 19 10 61 25 93 35 l57 18 0 95 c0 51 -3 94 -7 94 -5 -1 -24 -7
-43 -14z"/>
<path d="M2299 3234 c-130 -90 -171 -124 -285 -238 -277 -281 -444 -630 -444
-928 0 -229 94 -375 280 -438 123 -41 318 -22 452 44 l62 31 -3 95 c-1 52 -4
96 -5 98 -2 1 -27 -9 -57 -23 -219 -101 -442 -54 -525 112 -26 52 -29 67 -28
153 1 123 28 224 98 365 69 141 151 255 263 368 85 85 203 183 271 222 17 11
32 24 32 30 0 25 -37 139 -47 142 -5 2 -34 -13 -64 -33z"/>
<path d="M625 2248 c-23 -77 -64 -287 -81 -408 -59 -445 62 -883 316 -1140
107 -108 210 -177 343 -229 165 -64 225 -74 437 -75 154 0 203 4 290 22 435
93 834 291 1234 612 181 145 172 137 161 153 -5 8 -46 60 -90 115 -44 55 -93
116 -108 137 l-29 36 -56 -54 c-65 -61 -259 -206 -377 -282 -414 -264 -787
-387 -1135 -372 -153 7 -235 25 -350 79 -95 45 -147 81 -217 149 -103 100
-193 260 -233 414 -27 103 -37 331 -21 470 10 85 65 335 85 385 5 13 -7 18
-64 28 -39 7 -75 12 -80 12 -5 0 -16 -24 -25 -52z"/>
<path d="M1130 2234 c-7 -33 -21 -97 -32 -143 -25 -111 -33 -276 -19 -376 16
-111 74 -282 123 -356 121 -188 336 -299 578 -299 249 0 605 121 880 298 56
37 241 170 250 181 3 3 26 23 53 44 26 21 47 44 47 50 0 11 -65 118 -103 171
-14 20 -14 20 -39 0 -203 -155 -279 -207 -405 -276 -251 -136 -412 -186 -633
-195 -134 -6 -217 10 -317 59 -121 59 -219 187 -260 339 -26 96 -23 324 5 448
12 52 20 96 18 98 -2 2 -33 6 -69 10 l-65 6 -12 -59z"/>
<path d="M3209 2158 c-45 -57 -115 -137 -156 -179 l-75 -77 33 -48 c69 -100
94 -133 101 -134 14 0 231 239 303 334 l75 100 -91 53 c-49 29 -94 53 -99 53
-5 0 -45 -46 -91 -102z"/>
<path d="M2625 2074 c-49 -41 -107 -85 -127 -96 -29 -16 -38 -28 -38 -47 1
-41 18 -162 24 -168 17 -17 326 209 326 239 0 7 -89 149 -93 147 -1 0 -42 -34
-92 -75z"/>
<path d="M3623 2013 c-49 -68 -155 -186 -281 -315 l-125 -127 64 -73 c35 -40
88 -104 118 -141 30 -37 58 -67 62 -67 28 0 494 528 494 559 0 5 -18 22 -40
37 -58 39 -255 164 -260 164 -2 0 -16 -17 -32 -37z"/>
</g>
</svg>
